<?xml version="1.0" encoding="UTF-8" standalone="no"?> <!-- Created with Inkscape (http://www.inkscape.org/) --> <svg xmlns:inkscape="http://www.inkscape.org/namespaces/inkscape" xmlns:rdf="http://www.w3.org/1999/02/22-rdf-syntax-ns#" xmlns="http://www.w3.org/2000/svg" xmlns:xlink="http://www.w3.org/1999/xlink" xmlns:ns1="http://sozi.baierouge.fr" xmlns:cc="http://creativecommons.org/ns#" xmlns:dc="http://purl.org/dc/elements/1.1/" xmlns:sodipodi="http://sodipodi.sourceforge.net/DTD/sodipodi-0.dtd" id="svg3059" sodipodi:docname="_F.svg" viewBox="0 0 744.09 1052.4" inkscape:version="0.48.4 r9939"><g id="layer1" inkscape:label="Layer 1" inkscape:groupmode="layer"><g id="g3293" transform="translate(-8.5714 -6.869e-8)"><path id="path3299" style="fill:#fafcfd" inkscape:connector-curvature="0" d="m22.536 540.22v-494.71h366.7 366.7v494.71 494.71h-366.7-366.7v-494.71z"></path><path id="path3297" style="fill:#3994fa" inkscape:connector-curvature="0" d="m299.3 908.82c-44.66-3.9375-73.259-15.766-105.65-43.693-12.098-10.432-27.476-22.874-34.173-27.647-22.534-16.062-50.151-42.517-50.151-48.041 0-3.0142-1.9575-6.1328-4.3499-6.9303-3.8562-1.2854-20.529-62.143-28.333-103.42-1.5794-8.3537-3.5486-44.481-4.3758-80.283-1.2824-55.497 0.01302-72.452 8.7861-115 18.782-91.091 41.926-149.07 86.47-216.63 20.74-31.456 41.537-69.442 41.751-76.256 0.1952-6.2258 16.844-24.012 35.834-38.282 23.667-17.785 48.149-27.52 101.27-40.267 41.364-9.9269 53.158-11.027 95.455-8.9061 51.598 2.5876 74.635 9.1348 102.4 29.101 15.894 11.432 18.058 18.885 4.0612 13.986-5.8355-2.0424-6.1604-1.4213-1.7455 3.3367 2.9835 3.2154 5.4245 8.5601 5.4245 11.877s4.3938 9.8973 9.7641 14.623l9.7641 8.5923-11.804-2.5222c-11.202-2.3936-11.774-1.7241-11.215 13.128 0.32373 8.6078 3.1942 16.65 6.3791 17.873 11.251 4.3176 5.7464 10.653-6.8524 7.8855-10.033-2.2037-13.179-1.088-15.24 5.4055-2.0178 6.3576-5.6263 7.7377-16.181 6.1887-9.4053-1.3804-12.648-0.47943-10.541 2.9289 4.0694 6.5845-3.9978 6.1395-29.622-1.6338-29.001-8.7979-77.046-8.1233-112.01 1.5727-38.284 10.616-46.728 16.82-60.671 44.573-6.4479 12.834-22.461 39.649-35.584 59.587-47.904 72.781-73.919 159.62-73.642 245.82 0.15939 49.609 5.3676 91.613 15.215 122.71 3.9985 12.626 34.572 41.512 74.518 70.405 12.905 9.3343 139.75 11.223 157.66 2.3482 6.8338-3.3857 17.795-8.18 24.359-10.654 14.699-5.5403 14.679-9.8326-0.17228-37.376-16.072-29.807-42.96-63.153-63.894-79.239-9.5788-7.3605-26.014-21.321-36.524-31.023-17.406-16.069-19.005-20.244-6.8147-17.797 2.3868 0.47931-0.39464-4.1715-6.181-10.335-5.7862-6.1636-15.001-11.206-20.477-11.206-13.15 0-9.1038-11.271 5.3484-14.898 10.563-2.6511 10.572-2.703 2.1397-11.754-6.9179-7.4254-7.5354-10.588-3.3703-17.257 2.8048-4.4911 9.6271-8.1657 15.161-8.1657 5.627 0 8.8748-1.9196 7.3694-4.3555-1.4805-2.3956-7.9424-3.0796-14.36-1.52-11.647 2.8303-11.653 2.8185-3.4011-6.4935 4.5468-5.131 12.358-9.2991 17.358-9.2626 7.4602 0.0547 7.9235 0.82127 2.5821 4.2732-5.2638 3.4017-4.6409 4.2194 3.2547 4.2732 5.3702 0.0347 9.7641-1.5729 9.7641-3.5766 0-8.1924 23.423-13.252 64.917-14.023 48.235-0.89608 88.835-7.4315 114.39-18.413 9.1126-3.9164 17.9-6.8495 19.528-6.5181 1.628 0.33137 8.0779-1.5214 14.333-4.1173 6.2553-2.5959 16.996-4.0927 23.868-3.3263s15.912-0.42298 20.089-2.6431c5.0815-2.7009 7.5943-2.4533 7.5943 0.7482 0 2.8099 3.5822 3.6478 8.6792 2.03 4.9789-1.5802 8.6792-0.77983 8.6792 1.8774 0 2.5476-4.6731 4.632-10.385 4.632-10.694 0-18.503 10.745-11.124 15.306 2.2826 1.4107 4.1501-0.47957 4.1501-4.2006 0-4.839 4.3252-6.7655 15.189-6.7655 10.608 0 15.189 1.9631 15.189 6.5094 0 4.0903 4.127 6.5094 11.105 6.5094 6.1078 0 9.9443 1.8782 8.5256 4.1738-1.6279 2.6339-6.5255 2.6735-13.275 0.10762-5.8825-2.2365-10.695-2.5959-10.695-0.79862 0 4.568 18.822 20.449 22.783 19.223 1.7901-0.55408 3.2547 0.94543 3.2547 3.3322 0 7.1371-13.788 4.9095-20.145-3.2547-5.532-7.1043-5.7253-7.0583-2.9956 0.71186 2.2194 6.318 1.4429 7.5024-3.2441 4.9483-3.3891-1.8469-1.1877 1.2502 4.892 6.8824 6.0796 5.6322 8.7592 8.7346 5.9545 6.8942-3.2378-2.1246-6.0254 0.19528-7.636 6.3542-1.3952 5.3352-0.55421 10.926 1.8688 12.423 2.423 1.4975 3.8142 5.473 3.0915 8.8345-0.72272 3.3614 1.127 5.6235 4.1105 5.0268 8.315-1.663 6.4423 10.579-2.1698 14.184-4.1769 1.7484-14.429 3.6094-22.783 4.1355-21.538 1.3563-43.58 6.663-57.742 13.902-6.697 3.423-17.438 6.9302-23.868 7.7938-6.4302 0.86358-15.991 3.2064-21.247 5.2063l-9.5556 3.6362 13.202 21.21c25.17 40.439 43.411 77.21 41.183 83.016-1.2315 3.2093 0.0174 6.5872 2.7757 7.5066 8.8131 2.9377 7.9573 59.305-1.2174 80.184-19.424 44.203-47.803 66.199-113.86 88.243-34.427 11.49-47.565 13.569-92.221 14.599-28.641 0.66045-69.112-0.30116-89.935-2.1371zm46.539-359.92c-1.4751-2.3868-3.5432-4.3396-4.5957-4.3396s-1.9137 1.9528-1.9137 4.3396 2.0681 4.3396 4.5957 4.3396 3.3888-1.9528 1.9137-4.3396z"></path><path id="path3295" style="fill:#0974f6" inkscape:connector-curvature="0" d="m278.01 900.21c-23.68-3.8612-54.489-17.086-66.702-28.632-4.7736-4.5127-24.302-20.847-43.396-36.299-35.614-28.819-49.507-42.611-49.761-49.396-0.0794-2.1236-3.2852-6.1578-7.124-8.9648-6.3147-4.6175-22.993-68.015-30.875-117.36-6.4133-40.152-2.9981-129.48 6.6715-174.5 19.539-90.966 39.579-140.45 87.507-216.07 13.615-21.481 30.038-49.654 36.496-62.606 6.4584-12.952 18.504-29.927 26.768-37.721 46.345-43.709 165.71-69.888 247.11-54.196 26.619 5.1314 47.638 12.86 44.234 16.264-2.6065 2.6065-53.622-5.1638-66.601-10.144-4.6713-1.7925-6.2147-1.0883-4.3229 1.9726 2.8732 4.6489 18.994 10.63 42.937 15.929 6.5497 1.4497 11.432 4.7984 10.849 7.4416-0.58273 2.6432 1.6534 5.7914 4.9691 6.9961 3.6922 1.3415 4.8543 0.29032 2.9986-2.7122-4.6315-7.494-0.60142-5.8776 10.922 4.3806l10.428 9.2831-15.886-2.438c-8.7373-1.3409-16.902-1.4218-18.144-0.17966-4.2244 4.2244 2.3833 14.427 9.5418 14.734 5.5214 0.2362 5.1719 1.1074-1.5492 3.8617-7.9786 3.2695-7.6282 3.9798 4.3396 8.7977 32.205 12.965 31.443 12.446 19.528 13.312-5.967 0.43408-13.143 0.50607-15.946 0.16-2.8035-0.34608-6.2229 1.192-7.5986 3.418s-6.6049 2.9742-11.62 1.6626c-5.0155-1.3116-10.384-0.44239-11.93 1.9315-1.8141 2.786-14.951 2.9925-37.054 0.58255-47.772-5.2087-128.49 9.077-128.49 22.74 0 2.9949 2.9632 3.6714 7.5943 1.7335 11.299-4.7279 41.803-10.255 45.158-8.1816 1.6069 0.99311 3.7068-0.5499 4.6665-3.4289 4.082-12.246 106.24-3.0367 114.49 10.322 2.0934 3.3872-0.20006 4.019-7.4111 2.0416-37.053-10.161-71.211-12.807-96.775-7.4956-14.574 3.0278-29.427 6.096-33.007 6.8184-21.274 4.2924-44.382 17.531-50.184 28.749-3.5498 6.8645-7.4176 12.481-8.5952 12.481-3.6862 0 3.4234-23.384 10.37-34.106 6.1959-9.564 6.0792-10.132-1.7714-8.6198-4.6222 0.89016-8.6668 3.5446-8.9878 5.8986-1.4943 10.956-7.309 23.808-10.771 23.808-2.1084 0-3.8335 3.5949-3.8335 7.9887s-11.257 24.41-25.015 44.481-28.876 44.303-33.594 53.851c-4.7186 9.5471-10.708 20.288-13.309 23.868-4.8124 6.623-23.595 68.812-25.558 84.622-0.59268 4.7736-4.483 23.802-8.6453 42.286-5.8685 26.061-7.035 45.061-5.1954 84.622 1.8648 40.103 9.2482 93.669 15.705 113.94 0.38015 1.1934 2.3385-1.9029 4.3519-6.8807 2.2238-5.4978 1.3611-18.943-2.1977-34.253-8.1782-35.181-1.08-24.146 8.3144 12.926 5.6148 22.157 11.203 33.606 20.651 42.311 16.195 14.921 13.032 15.17-9.7767 0.77163-23.593-14.894-25.528-11.034-3.9504 7.8808 9.606 8.4202 17.465 17.811 17.465 20.868 0 3.0571 1.2174 4.3409 2.7054 2.8529s9.5066 2.4821 17.819 8.8224c13.488 10.287 14.247 11.894 7.0587 14.93-7.2311 3.0539-7.1245 3.2982 1.0424 2.3885 5.0036-0.55733 12.146 1.5166 15.872 4.6089 10.03 8.3242 42.199 11.806 103.05 11.155 53.497-0.57282 64.448-1.6653 78.99-7.8804 4.0626-1.7363 8.9446-2.3172 10.849-1.2909s6.88-1.7299 11.057-6.1249c7.2542-7.633 7.1941-7.9908-1.341-7.9908-4.9474 0-7.7188-1.9684-6.2095-4.4104 1.4992-2.4257 4.592-3.257 6.873-1.8472 2.281 1.4097 3.8676 0.95336 3.5259-1.0141-3.4742-19.999 7.5517-32.078 12.391-13.574 2.3668 9.0508 2.6423 9.1055 5.4586 1.0849 1.6313-4.6458 1.5001-11.376-0.29162-14.956-1.7916-3.5802-7.8483-16.274-13.459-28.207-5.6109-11.934-11.666-22.349-13.456-23.145-1.7901-0.79562-3.2547-3.4465-3.2547-5.8909 0-7.9452-72.501-73.979-78.805-71.776-5.1005 1.783-21.006-21.801-21.006-31.146 0-4.9938 1.4646-9.0948 3.2547-9.1135 3.7284-0.0391 14.854-22.36 12.379-24.835-0.89859-0.8986-5.5456-1.9285-10.327-2.2886-10.164-0.76564-8.1499-10.072 3.5328-16.324 5.4888-2.9375 8.4078-2.5783 9.796 1.2055 1.5722 4.2852 3.1559 4.2781 7.7274-0.0347 4.1528-3.9177 4.3034-5.4245 0.54245-5.4245-7.5643 0-6.3811-15.565 1.8056-23.752 8.6797-8.6798 16.846-6.4562 16.882 4.5969 0.0243 7.3867 3.3852 8.3056 30.377 8.3056 53.201 0 136.51-17.777 136.64-29.156 0.0174-1.7151 2.7351-2.0819 6.0367-0.81498 3.3015 1.2669 13.365-0.77284 22.364-4.5328 8.9988-3.76 17.309-5.8889 18.467-4.7309 2.6942 2.6942-22.303 13.483-34.346 14.825-3.5826 0.39881-3.5925 2.0829-0.0391 6.3662 2.6583 3.2031 3.5484 7.1087 1.9779 8.6792s-0.36799 2.8554 2.6717 2.8554c3.0399 0 4.4432-2.8248 3.1184-6.2773-1.7912-4.6678 2.471-7.0091 16.623-9.1312 10.467-1.5697 21.595-1.8283 24.727-0.57474 3.1327 1.2536 0.21048 2.4334-6.4942 2.6219-6.7045 0.18834-11.046 2.1934-9.6482 4.4554 1.398 2.262-1.416 3.3505-6.2533 2.4189-5.0468-0.97189-8.7951 0.61831-8.7951 3.7313 0 2.9838-7.9391 8.9278-17.642 13.209-22.118 9.7585-19.969 13.825 2.3728 4.4897 16.377-6.8428 16.43-6.8313 13.855 3.017-2.5136 9.6122-2.3193 9.5778 7.009-1.2388 7.059-8.1852 11.888-10.287 18.273-7.9543 7.9789 2.9148 7.8074 3.3019-2.1254 4.7963-6.5244 0.98167-11.45 5.0092-12.434 10.167-1.4243 7.4643-0.73287 7.7967 5.485 2.6363 3.9131-3.2476 8.3695-4.6501 9.903-3.1166s0.39447 2.7882-2.5308 2.7882c-2.9254 0-3.9361 2.2376-2.2458 4.9725 2.1628 3.4995-0.33241 4.1178-8.4231 2.0871-7.5924-1.9059-11.495-1.1387-11.495 2.2602 0 2.8301-1.285 3.8606-2.8554 2.2901-1.5705-1.5705-5.4761-0.68041-8.6792 1.9779s-5.8238 3.524-5.8238 1.9237-8.7877 3.1365-19.528 10.526c-10.74 7.3896-19.528 15.685-19.528 18.435 0 3.6565-1.3985 3.6005-5.2075-0.2083-6.2705-6.2705-13.743-6.9554-10.012-0.91761 1.5203 2.4599-0.22175 3.1874-4.0835 1.7055-3.7042-1.4216-6.7348-5.4201-6.7348-8.8858 0-3.5781 2.1186-4.9918 4.9026-3.2712 2.9225 1.8062 4.1275 0.70462 2.9835-2.7274-3.6055-10.816-12.226-9.4898-12.226 1.8816 0 8.2427-1.7282 10.411-6.7588 8.4808-3.7174-1.4265-5.7934-5.1092-4.6136-8.1838s-0.82045-6.7283-4.4451-8.1192c-9.519-3.6528-13.321-2.9865-6.748 1.1827 3.1031 1.9683 5.9495 7.6617 6.3254 12.652 0.37581 4.9903 1.7427 8.9772 3.0373 8.8597 1.2946-0.11761 6.9868 0.0174 12.649 0.3003 8.0987 0.40401 9.2642 1.7565 5.4622 6.3377-7.0992 8.554-2.0864 10.963 14.86 7.1408 8.2999-1.8719 16.067-1.646 17.397 0.506 1.3215 2.1383-1.4584 3.8878-6.1776 3.8878-11.96 0-22.309 4.4544-22.309 9.6019 0 2.3836 5.0151 10.294 11.145 17.578 14.263 16.951 42.933 73.871 49.51 98.296 3.8924 14.455 3.8757 19.967-0.0716 23.707-3.9039 3.6983-4.5076 2.7566-2.5055-3.9079 1.5258-5.0791-1.0125-15.591-6.0217-24.937-4.7628-8.8861-8.6596-19.093-8.6596-22.682 0-3.5888-1.7411-6.5251-3.8691-6.5251s-4.9807-4.3938-6.3392-9.7641c-4.1047-16.226-36.456-62.717-45.241-65.014-6.6789-1.7466-7.8496-0.24084-6.2634 8.057 1.0729 5.6128 3.4757 9.2627 5.3394 8.1108 1.8638-1.1519 4.5473 0.92511 5.9635 4.6156 1.664 4.3364 0.82018 5.6255-2.3856 3.6442-3.0556-1.8885-3.7714-1.1418-1.864 1.9444 1.703 2.7556 5.8345 5.0101 9.181 5.0101 7.0107 0 29.513 44.11 24.279 47.592-1.9117 1.2722-0.48881 9.1479 3.1621 17.502 15.913 36.41 17.459 43.52 11.825 54.379-4.2332 8.1595-6.5323 9.2622-10.696 5.13-4.1674-4.1358-4.6842-3.6365-2.4125 2.3307 1.5902 4.1769 5.3674 7.5943 8.3939 7.5943 6.1685 0 7.6166 20.55 1.7055 24.203-2.0884 1.2907-4.0237-3.1387-4.3005-9.8432-0.30291-7.3361-1.2936-9.1661-2.488-4.5957-1.0915 4.1769-3.5234 7.5943-5.4042 7.5943s-2.4864 4.882-1.3457 10.849c1.2609 6.596 0.0738 10.849-3.0277 10.849-2.8059 0-3.8947-1.9528-2.4196-4.3396 4.1031-6.639-1.0968-5.1733-10.642 2.9996-6.9257 5.93-7.5602 8.5896-3.3043 13.852 3.438 4.251 3.5548 5.4868 0.33588 3.5586-2.7815-1.6663-5.8147 0.42485-6.958 4.7966-1.3332 5.0983-11.226 10.536-28.908 15.89-14.785 4.4764-27.88 9.7544-29.1 11.729-1.2202 1.9744-4.1714 3.5898-6.5582 3.5898s-3.047-2.0916-1.4671-4.6478c1.8797-3.0414-2.1567-4.1663-11.678-3.2547-8.786 0.84123-14.121 3.5421-13.465 6.8176 0.5967 2.9835-2.4302 5.4245-6.7264 5.4245s-10.155 2.3434-13.019 5.2075c-5.0801 5.0801-5.7141 4.53-6.8349-5.9308-0.71308-6.6575-11.391-10.146-11.391-3.7219 0 2.7266 2.2546 3.564 5.0101 1.861 3.1041-1.9184 3.8321-1.1904 1.9137 1.9137-1.703 2.7556-7.375 4.9802-12.604 4.9437-6.9881-0.049-7.9476-1.0552-3.6202-3.7972 3.6203-2.294 4.2133-4.7656 1.5396-6.418-2.3915-1.478-5.4094 0.0781-6.7064 3.458-1.604 4.1801-7.6477 5.7079-18.898 4.7773-9.0969-0.75244-19.319 0.86476-22.717 3.5938-5.0739 4.0758-5.7277 3.2182-3.661-4.8022 1.3838-5.3702 0.74609-9.7641-1.4172-9.7641s-3.9333 1.9528-3.9333 4.3396-3.9056 4.3396-8.6792 4.3396c-4.8218 0-8.6792-2.8931-8.6792-6.5094 0-3.5802-3.4174-6.3552-7.5943-6.1668-4.5368 0.20483-5.4104 1.2238-2.1698 2.5314 2.9835 1.2038 5.4245 4.1926 5.4245 6.6416 0 6.7608-48.889-1.7648-68.358-11.921-6.5588-3.4214-14.481-6.2327-17.606-6.2474-3.1243-0.0147-4.4737-1.9796-2.9986-4.3663 1.4925-2.4149-1.7622-4.3374-7.3382-4.3347-9.7722 0.004-9.698 0.31375 2.9986 12.474 7.1603 6.8583 13.764 11.807 14.674 10.997 0.91052-0.81003 5.4555 0.56094 10.1 3.0466 17.699 9.4723 51.539 15.319 94.863 16.389 24.717 0.61075 46.478 2.0612 48.358 3.2232 1.8801 1.162 3.4184 0.2845 3.4184-1.95 0-2.2569 8.8107-3.0695 19.824-1.8282 18.608 2.0974 62.177-6.8984 81.013-16.727 4.1445-2.1626 11.676-3.9319 16.738-3.9319 6.5679 0 8.4561-1.9448 6.5956-6.7932-2.0372-5.3088-0.59783-6.1556 6.5869-3.8752 5.4431 1.7276 10.513 0.78399 12.427-2.313 1.7781-2.877 6.9046-4.3566 11.392-3.288 11.451 2.727-48.869 30.459-85.957 39.519-30.811 7.5262-137.84 9.0886-177.67 2.5936zm156.79-37.232c0-0.42962-6.0763-2.899-13.503-5.4879-11.762-4.1004-12.813-3.8754-8.1478 1.7453 3.7208 4.4833 3.8686 6.4524 0.48406 6.4524-2.679 0-4.871 2.0681-4.871 4.5957s1.9528 3.3888 4.3396 1.9137 4.3396-0.63306 4.3396 1.8712c0 2.5042 3.9056 1.2091 8.6792-2.8782s8.6792-7.7827 8.6792-8.2122zm-170.97 4.8805c-4.5285-3.4278-10.367-4.9137-12.975-3.302-2.737 1.6915-0.17354 4.2018 6.0638 5.9378 15.648 4.3555 15.98 4.229 6.9112-2.6358zm24.236 3.544c-3.1326-1.2536-6.8756-1.0994-8.3176 0.34239-1.442 1.442 1.1211 2.4677 5.6957 2.2792 5.0554-0.2083 6.0837-1.2365 2.6218-2.6218zm64.28-7.8846c0-3.5802-1.8915-6.5094-4.2034-6.5094s-3.0794 2.9292-1.7055 6.5094c1.3738 3.5802 3.2654 6.5094 4.2034 6.5094 0.93803 0 1.7055-2.9292 1.7055-6.5094zm-43.396-4.3376c0-4.3911-6.0886-4.9596-23.868-2.2284-5.4836 0.84241 10.637 7.2893 18.227 7.2893 3.1022 0 5.6404-2.2774 5.6404-5.0609zm-60.754-2.4279c0-2.5276 1.9528-3.3888 4.3396-1.9137s4.3396 0.61396 4.3396-1.9137c0-6.4325-11.811-5.7599-14.554 0.82878-1.6437 3.9473-3.9406 3.3564-8.4343-2.1698-3.3965-4.1769-7.7275-7.5943-9.6244-7.5943s0.0857 3.9056 4.4057 8.6792c8.4184 9.3022 19.528 11.625 19.528 4.0835zm273.89-22.898c1.6947-6.3369 1.4348-12.539-0.57752-13.783-5.149-3.1823-9.1012 4.5389-6.1971 12.107 2.9063 7.5736-13.959 13.439-17.039 5.9257-1.1194-2.7301-2.1894-1.5464-2.3778 2.6305-0.18834 4.1769 1.7255 7.5943 4.2531 7.5943 2.5572 0 3.1205 2.406 1.2699 5.4245-1.9821 3.2328 0.89899 2.6363 7.1307-1.4764 5.7511-3.7955 11.843-12.086 13.538-18.423zm-304.27 7.5563c0-1.2503-1.7766-1.1752-3.948 0.16664-6.0031 3.7103-17.75-2.0906-17.75-8.7651 0-3.2796 2.7012-4.8724 6.0704-3.5795 3.3387 1.2812 7.1961 0.50808 8.5719-1.718 1.3904-2.2497-4.5004-3.8267-13.263-3.5505-9.1296 0.28771-16.543-1.7873-17.614-4.9305-1.2407-3.6409 0.76971-4.4879 6.1074-2.5731 6.0504 2.1704 5.3574 0.28641-2.8921-7.8621-6.5945-6.514-12.756-9.3083-15.712-7.1256-2.8824 2.1284-9.0684 0.0881-15.189-5.0094-5.6791-4.7301-7.8846-8.6651-4.9011-8.7446 2.9835-0.0794 5.4245 1.5995 5.4245 3.7309s3.3715 5.1691 7.4922 6.7503c5.3965 2.0709 4.5444-0.26298-3.0464-8.3428-5.7962-6.1698-13.291-10.162-16.655-8.8709-4.1142 1.5788-5.2922 0.20049-3.5992-4.2117 1.4816-3.8611 0.1008-6.5586-3.3573-6.5586-8.1454 0-19.891-19.129-19.891-32.394 0-6.0509-2.2099-11.002-4.911-11.002-9.1519 0-0.76992 33.189 14.13 55.949 7.9802 12.19 16.186 22.164 18.234 22.164 2.0486 0 8.656 3.879 14.683 8.62 6.0272 4.741 12.73 7.5251 14.896 6.1869 2.1654-1.3383 3.4005-0.81958 2.7446 1.1527-0.65583 1.9723 5.386 9.8734 13.426 17.558 11.794 11.273 16.196 13.128 22.783 9.6027 4.4903-2.4031 8.1642-5.3923 8.1642-6.6426zm156.23 4.4951c-16.125-3.5083-38.25-4.1232-36.326-1.0096 1.1668 1.888 11.282 3.2061 22.478 2.9293 11.196-0.27686 17.428-1.1407 13.848-1.9197zm65.908-4.881c-3.1326-1.2536-6.8756-1.0994-8.3176 0.3424-1.442 1.442 1.1211 2.4677 5.6957 2.2792 5.0554-0.2083 6.0837-1.2365 2.6218-2.6218zm-83.266-20.439c0-0.93805-3.0307-2.8685-6.7348-4.2899-3.8619-1.4819-5.6038-0.75444-4.0835 1.7055 2.5485 4.1235 10.818 6.0991 10.818 2.5844zm-167.98-28.63c-1.2413-4.7467-4.0825-7.5021-6.3138-6.123-2.394 1.4795-1.9739 5.0172 1.0247 8.6304 6.8454 8.2482 7.9632 7.7183 5.2891-2.5073zm-25.652-19.802c1.482-3.8619 0.75443-5.6038-1.7055-4.0835-2.3594 1.4582-4.2899 4.4889-4.2899 6.7348 0 6.2422 3.1105 4.8667 5.9954-2.6513zm396.89-7.4249c11.379-0.8572 11.383-0.0907-0.0516-10.12-5.1839-4.5468-8.2177-6.1816-6.7419-3.6328 1.4759 2.5487-1.0131 7.2982-5.531 10.555-4.5179 3.2563-7.0984 7.7261-5.7345 9.933 1.4075 2.2773 3.8215 1.8415 5.5826-1.0079 1.7065-2.7612 7.3208-5.338 12.476-5.7264zm-425.88-11.33c-3.3063-3.882-5.6753-14.381-5.2645-23.332 0.41081-8.9504-1.0829-16.273-3.3194-16.273s-2.9423-2.9292-1.5684-6.5094c1.3738-3.5802 0.93183-6.5094-0.98224-6.5094-7.7173 0-8.6245 6.1543-2.9199 19.807 3.3012 7.9009 4.9488 18.393 3.6614 23.317-1.3026 4.9812-0.252 8.9513 2.3687 8.9513 2.5902 0 3.577 2.9514 2.1928 6.5586-1.8205 4.7442-0.5305 5.7964 4.6631 3.8034 6.1807-2.3718 6.3433-3.7375 1.1685-9.8134zm88.089 5.7046c0-1.0525-1.9528-1.9137-4.3396-1.9137s-4.3396 2.0681-4.3396 4.5957 1.9528 3.3888 4.3396 1.9137 4.3396-3.5432 4.3396-4.5957zm-13.019-6.2533c0-2.3868-2.0681-4.3396-4.5957-4.3396s-3.3888 1.9528-1.9137 4.3396 3.5432 4.3396 4.5957 4.3396 1.9137-1.9528 1.9137-4.3396zm340.06-10.849c1.3738-3.5802 0.60633-6.5094-1.7055-6.5094-2.3119 0-4.2034 2.9292-4.2034 6.5094s0.76751 6.5094 1.7055 6.5094c0.93805 0 2.8296-2.9292 4.2034-6.5094zm-441.2-34.72c-1.7334-10.682-0.8288-15.189 3.0485-15.189 3.0323 0 5.5133-2.9292 5.5133-6.5094s-1.6274-6.5094-3.6163-6.5094c-1.989 0-3.6163 1.6274-3.6163 3.6163 0 1.989-2.441 3.6057-5.4245 3.5927-3.9383-0.0174-5.6738-12.593-6.3346-45.901-0.59783-30.136 0.4961-43.653 3.1882-39.394 3.4818 5.5075 4.1083 5.3403 4.1648-1.1116 0.0365-4.1769-1.896-7.5943-4.2945-7.5943-2.4931 0-4.1135-10.944-3.7833-25.552 0.3177-14.054-0.76438-27.723-2.4046-30.377-1.6402-2.6539-0.9754-4.8253 1.4773-4.8253s3.2851-3.0605 1.8497-6.8011c-1.7381-4.5295-4.0578-5.3531-6.9451-2.4658-5.0587 5.0587-6.0055 127.05-1.0483 135.07 1.8131 2.9337 3.6832 13.305 4.1557 23.048 0.47249 9.7428 3.0044 18.429 5.6265 19.303 2.6221 0.87403 3.9026 6.3584 2.8456 12.187-1.1261 6.2099 0.14529 10.598 3.0704 10.598 3.2819 0 4.1478-5.2038 2.5275-15.189zm435.29 10.849c0-2.3868-2.0681-4.3396-4.5957-4.3396s-3.3888 1.9528-1.9137 4.3396 3.5432 4.3396 4.5957 4.3396 1.9137-1.9528 1.9137-4.3396zm-28.808-36.887c-1.7466-4.5515 0.32938-6.5094 6.9017-6.5094 5.2619 0 8.1997-1.9414 6.6738-4.4104-1.4992-2.4257-4.5436-3.2869-6.7655-1.9137-2.2218 1.3732-4.0397 0.10328-4.0397-2.8223 0-7.3845-5.8004-0.89596-7.0971 7.9391-1.0364 7.0615 1.5054 14.226 5.0472 14.226 0.97762 0 0.65345-2.9292-0.72038-6.5094zm-383.54-4.4445c-3.0192-3.6378-6.383-5.7206-7.4753-4.6283-3.0095 3.0095 3.1052 11.243 8.3498 11.243 2.8776 0 2.5483-2.49-0.87451-6.6143zm364.61-13.17c0-3.721-1.9847-5.5389-4.4104-4.0397s-3.2869 4.5436-1.9137 6.7655c3.72 6.0192 6.324 4.8968 6.324-2.7258zm-8.6792-10.593c0-2.3868-2.0681-4.3396-4.5957-4.3396s-3.3888 1.9528-1.9137 4.3396 3.5432 4.3396 4.5957 4.3396 1.9137-1.9528 1.9137-4.3396zm21.698 2.6341c0-0.93805-3.0306-2.8685-6.7348-4.2899-3.8619-1.4819-5.6038-0.75444-4.0835 1.7055 2.5485 4.1235 10.818 6.0991 10.818 2.5844zm-382.84-26.01c-0.51835-6.263-2.9944-9.5451-6.2566-8.2933-4.2198 1.6193-4.2677 3.8827-0.2195 10.365 6.6937 10.718 7.5129 10.456 6.476-2.0717zm345.95 6.0254c1.4751-2.3868 0.72918-4.3396-1.6576-4.3396s-5.5465 1.9528-7.0216 4.3396-0.72918 4.3396 1.6576 4.3396 5.5465-1.9528 7.0216-4.3396zm28.474-6.3446c2.2401 1.3845 4.0729 0.22132 4.0729-2.5846 0-3.1731-3.6914-4.1126-9.7641-2.4852-5.3702 1.4392-11.468 2.6434-13.55 2.676-2.0824 0.0347-1.2526 3.1118 1.8438 6.8428 5.1016 6.147 5.991 6.1385 9.4773-0.0911 2.116-3.7812 5.6801-5.7422 7.9202-4.3577zm-73.226 3.3802c-3.1326-1.2536-6.8756-1.0994-8.3176 0.34239-1.442 1.442 1.1211 2.4677 5.6957 2.2792 5.0554-0.2083 6.0837-1.2365 2.6218-2.6218zm-304.57-47.21c0-1.0525-1.9528-1.9137-4.3396-1.9137s-4.3396 2.0681-4.3396 4.5957 1.9528 3.3888 4.3396 1.9137 4.3396-3.5432 4.3396-4.5957zm43.091-24.953c0.16776-1.931-1.6478-2.3039-4.0346-0.82878s-4.2023 6.9606-4.0346 12.19c0.29406 9.1668 0.43884 9.1966 4.0346 0.82878 2.0513-4.7736 3.8668-10.259 4.0346-12.19zm223.2 12.215c-1.3686-3.5665-4.445-5.2752-6.8365-3.7972-2.6736 1.6524-2.0807 4.1241 1.5396 6.418 7.9016 5.0067 8.1724 4.8727 5.2969-2.6209zm163.33-9.2354c0-0.90116-2.6038-1.6385-5.7861-1.6385-3.1824 0-5.7862 2.8982-5.7862 6.4405 0 4.8751 1.4064 5.2733 5.7862 1.6385 3.1824-2.6411 5.7861-5.5394 5.7861-6.4405zm-64.28-8.9425c-3.1326-1.2536-6.8755-1.0994-8.3176 0.34239-1.442 1.442 1.1211 2.4677 5.6957 2.2792 5.0554-0.2083 6.0837-1.2365 2.6219-2.6218zm48.228-2.7728c-2.3607-3.8198 4.6686-3.2827 24.732 1.8893 4.4884 1.1571 6.0445-1.0165 5.0119-7.0011-2.0246-11.734-2.9615-12.252-12.722-7.0282-4.6493 2.4882-15.069 5.684-23.155 7.1018-20.376 3.5727-23.717 8.5414-5.9993 8.9221 8.4577 0.18183 13.623-1.4718 12.132-3.8838zm-49.042-11.621c3.5802-2.3137 4.5566-4.2067 2.1698-4.2067s-7.2688 1.893-10.849 4.2067-4.5566 4.2067-2.1698 4.2067 7.2688-1.893 10.849-4.2067zm-13.019-6.0033c0-0.915-3.9056-2.685-8.6792-3.9333s-8.6792-0.49967-8.6792 1.6637c0 2.1633 3.9056 3.9333 8.6792 3.9333s8.6792-0.74866 8.6792-1.6637zm26.038-6.8794c0-2.3118-2.9292-3.0793-6.5094-1.7055-3.5802 1.3739-6.5094 3.2654-6.5094 4.2034s2.9292 1.7055 6.5094 1.7055 6.5094-1.8915 6.5094-4.2034zm17.358-0.13617c0-2.3868-2.0681-4.3396-4.5957-4.3396s-3.3888 1.9528-1.9137 4.3396 3.5432 4.3396 4.5957 4.3396 1.9137-1.9528 1.9137-4.3396zm43.396-0.25604c0-2.5276-1.9528-3.3888-4.3396-1.9137s-4.3396 3.5432-4.3396 4.5957 1.9528 1.9137 4.3396 1.9137 4.3396-2.0681 4.3396-4.5957zm-449.75-6.2534c-1.3738-3.5802-3.2654-6.5094-4.2034-6.5094-0.93803 0-1.7055 2.9292-1.7055 6.5094s1.8915 6.5094 4.2034 6.5094 3.0794-2.9292 1.7055-6.5094zm62.67-13.14c-1.3361-1.3361-3.7626 1.0724-5.3923 5.3522-2.355 6.1848-1.8566 6.6832 2.4293 2.4293 2.9658-2.9437 4.2991-6.4454 2.963-7.7815zm-71.005 1.1997c6.1094-19.987 6.1624-33.632 0.13083-33.632-3.5205 0-6.4009 2.6851-6.4009 5.967 0 3.2818-1.2205 12.07-2.7122 19.528-1.7868 8.9341-0.99999 13.561 2.306 13.561 2.76 0 5.7644-2.441 6.6763-5.4245zm19.768-40.397c0-3.721-1.9528-5.5586-4.3396-4.0835s-4.3396 4.5196-4.3396 6.7655 1.9528 4.0835 4.3396 4.0835 4.3396-3.0445 4.3396-6.7655zm-8.1653-11.678c0.28264-5.3702 0.28264-11.229 0-13.019-0.28264-1.7901 1.6478-3.2547 4.29-3.2547 2.6421 0 3.7038-2.8667 2.3593-6.3704s-0.36857-7.6535 2.1688-9.2216c3.067-1.8955 2.6398-4.1017-1.2744-6.5819-3.7947-2.4045-4.082-3.7543-0.80811-3.7972 2.7938-0.0365 6.4244-6.1888 8.0679-13.672 1.6435-7.4828 7.6571-22.901 13.364-34.262 5.7065-11.361 10.375-22.814 10.375-25.451 0-2.6368 2.3434-4.7943 5.2075-4.7943 4.0095 0 4.0262-1.1813 0.0723-5.1352-2.8244-2.8244-5.8761-4.289-6.7816-3.2547-6.464 7.3831-29.96 63.774-29.96 71.905 0 5.5526-2.7292 12.361-6.0649 15.129-3.3729 2.7993-4.9285 8.6139-3.5047 13.1 1.4724 4.6393 0.46024 8.0665-2.3824 8.0665-2.7184 0-4.3749 4.3938-3.681 9.7641 0.69387 5.3703-0.25803 12.205-2.1153 15.189-2.1564 3.464-0.93177 5.4245 3.3886 5.4245 3.9708 0 6.9778-4.0334 7.2794-9.7641zm12.505-8.1065c0-2.3868-1.9528-3.1327-4.3396-1.6576s-4.3396 4.6348-4.3396 7.0216 1.9528 3.1327 4.3396 1.6576 4.3396-4.6348 4.3396-7.0216zm10.335-36.6c1.482-3.8619 0.75443-5.6038-1.7055-4.0835-2.3594 1.4582-4.2899 4.4889-4.2899 6.7348 0 6.2422 3.1105 4.8667 5.9954-2.6513zm71.279-86.681c-1.3361-1.3361-3.7626 1.0724-5.3923 5.3522-2.355 6.1848-1.8566 6.6832 2.4293 2.4293 2.9658-2.9437 4.2991-6.4454 2.963-7.7815zm-39.829-11.819c7.1065-13.746 7.0818-13.939-0.97346-7.5943-11.104 8.7454-14.631 14.079-12.062 18.236 3.5112 5.6812 5.3894 4.1478 13.036-10.642zm8.0763-20.684c-1.4992-2.4257-4.5436-3.2869-6.7655-1.9137-6.0192 3.7201-4.8968 6.3241 2.7258 6.3241 3.721 0 5.5389-1.9847 4.0397-4.4104zm47.779-21.627c-1.4751-2.3868-3.5432-4.3396-4.5957-4.3396s-1.9137 1.9528-1.9137 4.3396 2.0681 4.3396 4.5957 4.3396 3.3888-1.9528 1.9137-4.3396zm-21.729-12.969c1.5203-2.46-0.22157-3.1875-4.0835-1.7055-7.518 2.8849-8.8935 5.9954-2.6513 5.9954 2.2459 0 5.2766-1.9304 6.7348-4.2899zm32.578-31.721c0-8.8842-0.11278-8.8952-6.3714-0.62062-8.2436 10.899-8.2935 15.292-0.13801 12.163 3.5802-1.3738 6.5094-6.5678 6.5094-11.542zm-4.8072-15.191c2.8835-5.3878 6.9154-8.7623 8.9599-7.4988 2.0444 1.2635 2.609-1.9404 1.2545-7.1198-1.9538-7.4713-0.97349-8.8457 4.7443-6.6516 4.7636 1.8279 7.2069 0.53458 7.2069-3.8148 0-3.6192 5.1911-11.391 11.536-17.271 10.906-10.107 12.113-10.313 22.107-3.7642 9.9955 6.5493 10.428 6.4752 7.9415-1.36-2.9058-9.1554 8.059-16.834 28.971-20.288 18.966-3.1328 29.255-7.1432 29.255-11.403 0-2.3106-4.4862-2.2341-10.849 0.18503-5.9669 2.2686-10.849 2.9576-10.849 1.531s-2.6207-0.41877-5.8238 2.2396c-3.2031 2.6583-6.9385 3.7186-8.301 2.3561-4.1064-4.1064-68.046 28.608-81.37 41.632-6.8265 6.6731-11.367 13.177-10.091 14.454 1.2764 1.2764-0.80776 6.7871-4.6314 12.246-8.9299 12.749-9.8314 28.852-1.128 20.149 3.2032-3.2032 8.1832-10.232 11.067-15.62zm55.288-42.971c-3.7634-3.7634-14.088 4.2553-18.973 14.735l-5.3786 11.539 12.928-12.385c7.1102-6.812 12.251-13.062 11.424-13.889zm128.53-40.318c6.5636-0.0208 11.934-1.9905 11.934-4.3773 0-6.4061-38.863-4.6488-56.415 2.551l-15.189 6.2303 23.868-2.1831c13.127-1.2007 29.238-2.2001 35.802-2.2208zm32.129-4.959c-5.7424-3.3378-9.3694-3.3004-12.802 0.13197-3.4926 3.4926-1.3234 4.7536 8.0125 4.6573 11.223-0.1157 11.813-0.70645 4.7893-4.7893zm-7.1761 755.67c0-2.3868 3.0445-4.3396 6.7655-4.3396s5.5586 1.9528 4.0835 4.3396-4.5196 4.3396-6.7655 4.3396-4.0835-1.9528-4.0835-4.3396zm108.49-27.743c0-0.93805 2.9292-2.8296 6.5094-4.2034s6.5094-0.60633 6.5094 1.7055c0 2.3119-2.9292 4.2034-6.5094 4.2034s-6.5094-0.7675-6.5094-1.7055zm-8.6792-11.057c0-2.2459 1.9305-5.2766 4.2899-6.7348 2.4599-1.5203 3.1874 0.22175 1.7055 4.0835-2.8849 7.518-5.9954 8.8935-5.9954 2.6513zm36.887-21.954c1.4751-2.3868 4.6348-4.3396 7.0216-4.3396s3.1327 1.9528 1.6576 4.3396-4.6348 4.3396-7.0216 4.3396-3.1327-1.9528-1.6576-4.3396zm-268.92-25.81c-1.3546-2.1918 3.4306-3.8176 10.634-3.6128 7.2033 0.20483 13.097 1.6021 13.097 3.1051 0 4.4178-21.036 4.8679-23.731 0.50773zm28.07 0.18465c0-2.1633 3.9056-2.912 8.6792-1.6637s8.6792 3.0183 8.6792 3.9333-3.9056 1.6637-8.6792 1.6637-8.6792-1.77-8.6792-3.9333zm27.213 1.3115c1.442-1.442 5.1849-1.5961 8.3176-0.34239 3.4618 1.3853 2.4335 2.4136-2.6218 2.6218-4.5747 0.18834-7.1377-0.83724-5.6957-2.2792zm26.157-0.11977c4.8603-4.8603 42.927-6.4451 39.972-1.6642-1.4976 2.4232-11.721 4.4058-22.718 4.4058s-18.762-1.2338-17.254-2.7416zm-115.04-8.3157c-3.0776-3.6947-9.3812-10.53-14.008-15.189-4.6269-4.659-6.3306-8.4708-3.7861-8.4708 2.5446 0 7.1674 3.0616 10.273 6.8036s12.621 10.491 21.144 14.997c15.194 8.0325 15.267 8.1969 3.7352 8.385-6.4695 0.10545-14.281-2.8312-17.358-6.5259zm161.48 2.8027c0-2.1533 6.0043-6.0082 13.343-8.5664 10.258-3.5759 12.909-3.4232 11.467 0.6604-1.0318 2.9215-5.0832 5.0405-9.0032 4.709s-7.1272 1.1331-7.1272 3.2547-1.9528 3.8574-4.3396 3.8574-4.3396-1.7618-4.3396-3.9151zm155.3-13.443c1.0509-7.1603 2.6655-13.019 3.588-13.019 0.92247 0 1.6773 5.8584 1.6773 13.019 0 7.1603-1.6146 13.019-3.588 13.019s-2.7282-5.8585-1.6772-13.019zm-18.324 3.0675c1.6296-4.2798 4.0562-6.6883 5.3923-5.3522s0.003 4.8377-2.963 7.7815c-4.2859 4.2539-4.7843 3.7555-2.4293-2.4293zm-100.6-45.44c-2.6618-1.7535-6.3218-8.0703-8.1334-14.037-3.7078-12.213-2.7396-11.546 7.8771 5.4245 7.921 12.662 7.9514 13.682 0.25647 8.6128zm87.114-18.666c-1.5732-2.5456-1.9297-5.559-0.7922-6.6966 1.1375-1.1375 3.2246 0.94521 4.638 4.6283 2.9344 7.6468 0.43352 8.9919-3.8458 2.0682zm-138.94-48.57c-14.178-14.828-21.873-24.093-17.099-20.59 13.428 9.8556 46.552 43.875 44.611 45.817-0.95292 0.95293-13.333-10.399-27.511-25.227zm-230.94-32.5c0.0778-12.584 0.89409-14.306 3.6006-7.5943 4.8103 11.928 4.9126 23.868 0.2044 23.868-2.1481 0-3.8604-7.3231-3.805-16.274zm192.14-1.0849c-1.4751-2.3868-0.7292-4.3396 1.6576-4.3396s5.5465 1.9528 7.0216 4.3396 0.7292 4.3396-1.6576 4.3396-5.5465-1.9528-7.0216-4.3396zm-10.506-6.1478c-0.18842-4.5746 0.83723-7.1377 2.2792-5.6957s1.5962 5.1849 0.34261 8.3176c-1.3853 3.4618-2.4136 2.4336-2.6218-2.6219zm-184.2-25.32c-3.7195-13.879-3.3628-48.725 0.45967-44.902 3.1061 3.1061 6.5095 54.666 3.6084 54.666-0.79829 0-2.6289-4.3938-4.0681-9.7641zm379.15-3.2547c0-2.3868 1.9528-4.3396 4.3396-4.3396s4.3396 1.9528 4.3396 4.3396-1.9528 4.3396-4.3396 4.3396-4.3396-1.9528-4.3396-4.3396zm-210.47-4.3396c-1.4751-2.3868-0.61395-4.3396 1.9137-4.3396s4.5957 1.9528 4.5957 4.3396-0.86116 4.3396-1.9137 4.3396-3.1206-1.9528-4.5957-4.3396zm223.49 0.99564c0-4.4316 13.209-17.01 15.856-15.099 4.6044 3.3239 13.93 0.2057 16.071-5.3735 2.5745-6.709-3.6371-6.7935-21.078-0.28685-18.063 6.7391-21.751 6.8076-13.274 0.24605 4.633-3.586 9.8762-6.52 11.651-6.52 1.7752 0 8.7251-2.2161 15.444-4.9248 16.649-6.7115 31.745-8.3561 31.745-3.4584 0 3.7405-6.3277 5.7852-14.104 4.5574-1.7901-0.28251-3.2547 2.2097-3.2547 5.5385 0 4.753 3.4928 5.2646 16.27 2.383 9.7632-2.202 17.92-2.0192 20.396 0.457 2.6088 2.6088 2.1171 4.1264-1.3372 4.1264-3.005 0-4.1274 2.162-2.4943 4.8045 1.9883 3.2171-0.013 3.8586-6.0509 1.9416-7.8893-2.504-34.969 3.4585-58.245 12.825-4.1769 1.6807-7.5943 1.1332-7.5943-1.2167zm-228.83-29.66c1.442-1.442 5.1849-1.5962 8.3176-0.34239 3.4618 1.3853 2.4336 2.4136-2.6218 2.6218-4.5747 0.18834-7.1377-0.8372-5.6957-2.2792zm-166.08-16.66c0-1.0525 1.9528-3.1206 4.3396-4.5957s4.3396-0.61396 4.3396 1.9137c0 2.5276-1.9528 4.5957-4.3396 4.5957s-4.3396-0.86115-4.3396-1.9137zm460.62-1.9499c-3.6204-2.294-4.2133-4.7656-1.5396-6.418 2.3915-1.478 5.4679 0.23087 6.8365 3.7972 2.8755 7.4936 2.6047 7.6276-5.2969 2.6209zm-453.38-23.259c2.9521-15.509 4.6621-18.836 7.9775-15.52 3.3821 3.3821-2.7953 29.624-6.9735 29.624-2.0288 0-2.4806-6.3467-1.004-14.104zm266.16-13.84c0-4.5804 8.3282-6.5047 10.805-2.4967 1.4992 2.4257-0.3187 4.4104-4.0397 4.4104s-6.7655-0.86115-6.7655-1.9137zm20.617-2.7239c5.1597-4.5933 32.145-8.663 29.544-4.4557-1.2899 2.0871-9.1965 4.5946-17.57 5.5722-8.3736 0.97758-13.762 0.47514-11.974-1.1165zm-278.63-19.23c1.6686-9.5471 4.9867-19.311 7.3734-21.698 2.8931-2.8931 3.3283 1.4465 1.3058 13.019-1.6686 9.5471-4.9867 19.311-7.3734 21.698-2.8931 2.8931-3.3283-1.4465-1.3058-13.019zm315.61 12.567c1.442-1.442 5.185-1.5962 8.3176-0.3424 3.4618 1.3853 2.4336 2.4136-2.6219 2.6218-4.5746 0.18834-7.1377-0.83719-5.6957-2.2792zm16.183 0.75743c0-1.1934 3.9056-4.26 8.6792-6.8148 4.7736-2.5547 8.6792-3.6686 8.6792-2.4752s-3.9056 4.26-8.6792 6.8148c-4.7736 2.5547-8.6792 3.6686-8.6792 2.4752zm-320.29-52.39c-0.0884-7.1603 0.81179-10.615 2.0005-7.6769 1.1887 2.938 1.2611 8.7965 0.16078 13.019-1.1003 4.2223-2.0728 1.8184-2.1613-5.3419zm7.8996-27.122c-0.0366-5.3703 1.8864-9.7641 4.2731-9.7641 5.4372 0 5.4372 4.6054 0 13.019-3.4017 5.2638-4.2194 4.6409-4.2731-3.2547zm8.6127-21.192c0-2.4663 1.4646-5.9489 3.2547-7.739s3.394-4.5566 3.5644-6.1478c0.17032-1.5912 2.9248-8.2633 6.1211-14.827 9.2402-18.975 13.518-13.821 4.7617 5.7368-8.3549 18.661-17.702 30.794-17.702 22.977zm26.883-53.407c3.0701-4.916 7.065-8.9381 8.8776-8.9381s3.2957-2.8322 3.2957-6.2938 2.441-7.8554 5.4245-9.7641 9.1494-10.793 13.702-19.744c9.1343-17.958 18.348-22.735 10.461-5.4245-2.7187 5.9669-6.3708 10.849-8.1157 10.849s-4.4179 4.9619-5.94 11.026c-1.5221 6.0646-4.4547 9.9837-6.5169 8.7092s-4.9572 2.4949-6.4334 8.3765-6.6558 12.819-11.51 15.418c-8.1423 4.3576-8.3938 4.031-3.2445-4.2143zm243.35-128.73c1.442-1.442 5.185-1.5962 8.3176-0.34261 3.4618 1.3853 2.4336 2.4136-2.6218 2.6218-4.5746 0.18843-7.1377-0.83723-5.6957-2.2792z"></path></g></g><metadata></metadata></svg> 